 <svg version="1.0" xmlns="http://www.w3.org/2000/svg"  width="900.000000pt" height="258.000000pt" viewBox="0 0 900.000000 258.000000"  preserveAspectRatio="xMidYMid meet">  <g transform="translate(0.000000,258.000000) scale(0.100000,-0.100000)" fill="#FFFFFF" stroke="none"> <path d="M6470 2432 c-77 -52 -119 -133 -119 -232 -1 -85 23 -151 79 -213 55 -62 107 -86 183 -87 65 0 107 15 155 54 51 43 43 54 -40 54 -109 0 -186 38 -236 116 -24 36 -26 50 -26 126 1 68 5 93 23 128 13 23 27 45 32 48 12 7 2 24 -14 23 -7 0 -23 -8 -37 -17z"/> <path d="M2043 1813 c-20 -7 -19 -1166 1 -1182 15 -13 644 -15 662 -3 5 4 27 51 48 105 22 54 43 100 48 103 14 9 9 52 -8 68 -29 29 -58 17 -170 -71 -127 -101 -134 -106 -192 -134 -55 -26 -146 -37 -167 -19 -13 11 -15 83 -15 566 0 537 -1 554 -19 564 -20 10 -165 13 -188 3z"/> <path d="M3297 1813 c-4 -3 -7 -181 -7 -395 0 -323 3 -395 15 -425 8 -19 15 -46 15 -58 0 -21 13 -54 42 -105 4 -8 12 -24 17 -36 14 -32 105 -109 157 -134 168 -78 419 -54 542 54 36 32 102 126 102 147 0 6 6 25 13 42 26 60 47 172 47 246 0 41 7 167 15 280 9 114 15 247 13 296 l-3 90 -101 3 c-89 2 -103 0 -127 -18 -40 -31 -39 -52 19 -375 8 -44 14 -94 14 -112 0 -18 7 -58 15 -90 23 -86 22 -304 -1 -363 -24 -63 -68 -116 -121 -147 -61 -35 -166 -38 -233 -6 -46 22 -121 91 -145 134 -69 122 -75 166 -75 584 0 200 -3 370 -6 379 -5 13 -24 16 -103 16 -54 0 -101 -3 -104 -7z"/> <path d="M4735 1810 c-6 -10 28 -75 43 -82 4 -2 29 -30 56 -63 l48 -60 -5 -190 c-3 -104 -10 -266 -16 -360 -7 -93 -11 -228 -9 -300 l3 -130 96 -3 c83 -2 99 0 121 17 43 34 42 65 -4 211 -7 19 -15 53 -19 75 -5 22 -15 69 -24 105 -20 79 -42 209 -55 310 -19 158 -10 173 55 88 45 -58 135 -171 214 -268 29 -36 125 -155 213 -265 233 -290 203 -265 320 -265 83 0 99 3 106 18 5 9 12 105 16 212 11 362 26 684 36 808 8 93 8 127 -1 138 -8 10 -36 14 -98 14 -111 0 -126 -5 -151 -47 -19 -32 -19 -37 -5 -66 8 -16 15 -42 15 -56 1 -14 7 -37 15 -51 8 -14 14 -38 15 -53 0 -16 5 -38 12 -50 6 -12 15 -40 19 -62 3 -22 11 -60 17 -85 24 -99 64 -395 66 -482 1 -22 -4 -43 -10 -45 -6 -2 -56 51 -110 118 -273 338 -351 434 -369 458 -10 14 -51 64 -90 111 -39 47 -106 130 -149 185 -43 55 -86 106 -94 113 -20 15 -268 17 -277 2z"/> <path d="M6871 1806 c-8 -10 3 -40 49 -132 33 -65 60 -125 60 -133 0 -7 -20 -47 -45 -88 -25 -40 -45 -76 -45 -79 0 -2 -12 -23 -27 -47 -15 -23 -35 -55 -44 -72 -79 -143 -170 -309 -188 -346 -12 -24 -26 -51 -31 -59 -5 -8 -11 -22 -14 -30 -4 -8 -15 -28 -25 -45 -39 -60 -63 -116 -57 -131 5 -13 25 -15 130 -12 156 4 162 8 171 116 13 149 0 142 243 142 108 0 203 -4 211 -9 7 -5 36 -62 65 -127 l51 -119 113 -3 c95 -2 113 0 118 13 4 9 -17 71 -46 138 -98 229 -112 262 -120 282 -4 11 -22 50 -39 87 -17 37 -31 72 -31 77 0 5 -11 31 -24 58 -13 26 -49 109 -81 183 -91 218 -107 254 -116 265 -5 5 -9 16 -9 25 0 9 -9 26 -20 38 -19 20 -31 22 -129 22 -79 0 -112 -4 -120 -14z m189 -421 c17 -44 38 -93 45 -110 14 -31 41 -96 95 -228 18 -42 30 -84 26 -92 -4 -11 -39 -15 -178 -17 -210 -4 -212 -3 -204 31 3 14 9 46 14 71 6 25 15 60 21 78 25 72 33 98 41 127 5 17 18 55 30 85 12 30 26 70 31 87 8 26 38 59 45 50 1 -1 16 -38 34 -82z"/> <path d="M1192 1589 c-134 -15 -146 -30 -86 -112 26 -36 40 -47 52 -42 60 25 123 15 270 -44 123 -49 199 -20 297 112 25 34 27 40 13 53 -8 9 -33 20 -54 25 -56 14 -395 19 -492 8z"/> <path d="M1280 1235 c0 -10 84 -70 114 -81 9 -3 29 4 45 15 16 12 33 21 38 21 10 0 60 49 52 51 -36 7 -249 2 -249 -6z"/> <path d="M1400 911 c0 -259 3 -251 -111 -251 -46 0 -70 -5 -78 -14 -25 -30 22 -37 204 -34 125 2 178 7 187 16 20 20 -8 32 -80 32 -108 0 -102 -14 -102 245 0 143 -4 225 -10 225 -6 0 -10 -80 -10 -219z"/> <path d="M2927 780 c-30 -24 -40 -60 -27 -96 15 -37 38 -53 80 -53 42 0 65 16 80 53 14 38 3 72 -30 96 -36 25 -70 25 -103 0z"/> <path d="M4521 761 c-17 -21 -31 -43 -31 -48 0 -4 11 -25 25 -46 23 -32 31 -37 66 -37 82 0 120 90 62 145 -43 39 -84 34 -122 -14z"/> <path d="M6092 769 c-35 -35 -39 -56 -17 -98 16 -32 33 -41 75 -41 42 0 59 9 75 41 21 40 19 63 -11 98 -35 42 -79 42 -122 0z"/> <path d="M1049 264 c-40 -17 -59 -48 -59 -98 0 -49 32 -84 84 -91 56 -9 130 6 134 26 2 14 -8 15 -71 11 -69 -4 -75 -3 -91 19 -23 33 -20 56 10 86 23 23 30 25 84 19 70 -8 87 7 34 29 -45 19 -78 18 -125 -1z"/> <path d="M1323 260 c-17 -10 -37 -28 -42 -39 -19 -35 -13 -88 13 -118 22 -25 30 -28 90 -28 55 0 69 4 90 24 21 20 26 34 26 70 -1 55 -15 76 -63 96 -48 20 -75 19 -114 -5z m124 -47 c18 -24 16 -63 -4 -85 -21 -23 -89 -24 -115 -1 -18 16 -24 59 -10 79 24 36 105 41 129 7z"/> <path d="M1610 271 c-24 -7 -25 -10 -28 -99 -3 -87 -2 -92 18 -92 15 0 20 6 20 28 0 35 27 62 63 62 15 0 27 5 27 10 0 6 -11 10 -24 10 -35 0 -56 10 -56 26 0 16 43 29 66 20 23 -9 64 4 64 20 0 10 -13 14 -42 14 -24 0 -52 2 -63 4 -11 3 -31 1 -45 -3z"/> <path d="M1900 273 c-24 -3 -49 -8 -55 -13 -14 -12 -10 -169 4 -183 14 -14 41 9 41 37 0 32 16 50 47 52 15 1 31 3 36 3 4 1 7 5 7 10 0 4 -18 11 -41 14 -51 7 -59 15 -34 34 14 10 33 13 67 9 48 -7 70 6 49 27 -12 12 -55 15 -121 10z"/> <path d="M2122 268 c-8 -8 -12 -44 -12 -100 0 -102 -2 -101 115 -96 54 2 70 6 70 18 0 12 -16 16 -72 18 -64 3 -73 5 -73 22 0 23 28 40 64 40 14 0 26 5 26 10 0 6 -13 10 -28 10 -16 0 -37 6 -47 14 -18 13 -18 14 5 26 13 7 38 10 57 7 41 -7 63 0 63 19 0 11 -16 14 -64 14 -35 0 -70 2 -78 5 -7 3 -19 0 -26 -7z"/> <path d="M2424 273 c-39 -5 -41 -14 -34 -118 l5 -80 80 2 c44 2 87 5 95 8 29 12 -13 25 -77 25 -36 0 -65 5 -69 12 -11 18 34 48 72 48 19 0 34 5 34 10 0 6 -15 10 -34 10 -43 0 -66 9 -66 25 0 14 64 30 81 20 16 -11 59 4 59 20 0 10 -10 15 -29 15 -16 0 -41 2 -57 4 -16 2 -43 2 -60 -1z"/> <path d="M3717 266 c-62 -28 -84 -104 -47 -156 17 -23 30 -30 73 -34 64 -7 122 4 122 24 0 12 -13 14 -67 12 -62 -4 -68 -2 -83 22 -21 32 -12 82 17 97 13 7 42 9 74 5 29 -3 55 -2 58 3 18 29 -98 50 -147 27z"/> <path d="M4135 268 c-2 -7 -5 -24 -7 -38 -2 -19 -11 -26 -38 -32 -53 -11 -80 0 -87 33 -7 35 -19 45 -38 29 -11 -9 -13 -31 -11 -88 5 -99 3 -94 22 -90 9 2 22 19 28 38 10 32 14 35 56 38 49 4 70 -13 70 -54 0 -29 16 -39 35 -24 19 16 21 170 3 188 -15 15 -28 15 -33 0z"/> <path d="M4437 270 c-46 -14 -69 -56 -48 -88 4 -8 39 -21 77 -30 38 -9 68 -21 67 -27 -2 -5 -37 -11 -79 -13 -53 -2 -74 -6 -71 -15 5 -17 89 -30 143 -22 36 5 47 11 55 33 16 43 -15 75 -85 86 -36 5 -56 13 -56 22 0 26 58 30 114 8 11 -4 16 0 16 12 0 13 -12 23 -40 32 -45 14 -53 14 -93 2z"/> <path d="M5143 267 c-12 -6 -27 -22 -33 -35 -17 -39 9 -69 67 -78 96 -13 94 -44 -3 -44 -49 0 -64 -3 -64 -14 0 -19 90 -30 145 -19 36 8 40 12 43 42 4 39 -20 71 -53 71 -43 0 -85 13 -85 25 0 20 28 26 81 19 40 -5 49 -4 49 9 0 24 -111 42 -147 24z"/> <path d="M6534 269 c-45 -13 -67 -42 -68 -91 -1 -88 49 -119 167 -102 56 8 62 11 65 34 3 37 -11 52 -57 56 -30 3 -41 0 -41 -11 0 -7 9 -15 20 -17 42 -6 23 -23 -30 -26 -47 -3 -56 0 -72 20 -24 32 -22 55 8 85 24 24 31 25 84 20 67 -7 85 5 41 28 -33 17 -70 18 -117 4z"/> <path d="M6815 261 c-63 -28 -82 -88 -46 -147 20 -33 51 -44 121 -44 47 0 96 37 105 80 9 41 -19 95 -60 114 -43 21 -71 20 -120 -3z m115 -41 c24 -24 26 -67 3 -92 -23 -26 -108 -25 -123 1 -29 54 5 111 65 111 22 0 43 -8 55 -20z"/> <path d="M7107 266 c-36 -16 -67 -62 -67 -99 0 -20 11 -40 35 -64 35 -35 37 -36 96 -30 81 7 109 32 109 97 0 54 -25 84 -81 100 -42 12 -57 12 -92 -4z m108 -51 c29 -28 31 -51 9 -83 -21 -30 -108 -32 -124 -3 -42 79 52 150 115 86z"/> <path d="M7792 268 c-17 -17 -16 -172 1 -187 20 -16 27 -4 27 45 0 58 14 62 42 12 13 -24 30 -43 38 -43 8 0 23 17 32 37 22 46 46 41 50 -10 2 -29 7 -37 23 -37 18 0 20 8 23 70 4 92 -2 115 -32 115 -28 0 -42 -15 -51 -53 -4 -15 -16 -32 -28 -38 -17 -10 -23 -7 -39 12 -10 13 -21 34 -24 47 -4 12 -14 27 -24 32 -23 12 -24 12 -38 -2z"/> <path d="M8164 266 c-39 -17 -74 -61 -74 -94 0 -13 9 -39 20 -57 17 -27 29 -34 66 -40 25 -3 63 -3 85 0 33 6 43 14 65 50 24 41 24 45 10 72 -23 42 -38 57 -69 71 -35 15 -64 15 -103 -2z m104 -43 c12 -10 22 -25 23 -33 6 -58 -16 -80 -82 -80 -44 0 -51 3 -60 27 -12 33 -3 80 19 93 27 15 78 12 100 -7z"/> <path d="M8464 269 c-77 -22 -105 -112 -51 -166 24 -25 33 -27 99 -27 65 1 74 4 95 28 29 34 31 93 4 128 -11 13 -37 30 -59 36 -44 14 -46 14 -88 1z m86 -39 c23 -13 34 -59 21 -93 -9 -24 -16 -27 -57 -27 -56 0 -84 21 -84 61 0 50 71 85 120 59z"/> <path d="M54 257 c-3 -8 -4 -52 -2 -98 l3 -84 90 3 c97 4 123 17 109 57 -4 11 -8 39 -9 62 -3 65 -15 73 -107 73 -56 0 -80 -4 -84 -13z m132 -31 c18 -14 18 -15 -9 -25 -35 -14 -43 -14 -68 0 -16 8 -18 13 -8 25 15 18 60 18 85 0z m-10 -71 c51 -21 39 -39 -29 -43 -48 -3 -57 0 -57 14 0 16 26 43 43 44 4 0 24 -7 43 -15z"/> <path d="M384 253 c-3 -10 -9 -25 -14 -33 -18 -29 -60 -123 -60 -131 0 -17 29 -9 54 16 14 14 26 39 28 57 2 21 8 33 18 33 10 0 16 -12 18 -33 4 -37 43 -82 72 -82 28 0 25 14 -23 105 -31 59 -48 81 -65 83 -14 2 -24 -3 -28 -15z"/> <path d="M602 258 c-15 -15 -16 -164 -2 -173 15 -9 40 13 40 35 0 10 7 23 15 30 12 10 22 5 56 -29 23 -22 50 -41 60 -41 23 0 23 -1 2 40 -16 33 -16 34 5 48 33 22 31 79 -4 92 -36 14 -157 13 -172 -2z m139 -34 c11 -14 10 -18 -6 -31 -26 -18 -75 -13 -89 10 -8 14 -8 20 4 27 24 15 76 12 91 -6z"/> <path d="M2789 258 c-5 -90 0 -171 12 -179 15 -9 166 -5 176 5 13 13 -11 21 -70 26 l-62 5 -5 75 c-5 68 -7 75 -27 78 -14 2 -23 -2 -24 -10z"/> <path d="M3057 263 c-4 -3 -7 -38 -7 -78 0 -100 9 -110 102 -110 110 0 108 -1 108 105 0 82 -2 91 -17 88 -15 -3 -19 -17 -23 -73 -4 -62 -8 -71 -30 -82 -28 -14 -70 -7 -87 14 -6 8 -10 38 -9 66 3 61 -14 93 -37 70z"/> <path d="M3367 263 c-4 -3 -7 -46 -7 -95 0 -87 1 -89 23 -86 16 2 21 9 20 25 -2 13 2 35 8 50 l10 26 53 -52 c43 -43 59 -52 82 -49 l29 3 0 90 c0 83 -1 90 -20 90 -14 0 -21 -8 -23 -25 -9 -86 -21 -88 -80 -20 -41 47 -76 63 -95 43z"/> <path d="M4665 247 c-3 -12 -5 -54 -3 -92 3 -62 5 -70 23 -70 14 0 21 8 23 25 6 38 21 50 63 50 40 0 59 -18 59 -58 0 -20 25 -36 41 -26 5 3 9 48 9 100 0 87 -2 94 -20 94 -10 0 -24 -9 -30 -20 -6 -11 -8 -20 -5 -20 3 0 1 -9 -5 -19 -7 -14 -20 -19 -42 -19 -47 1 -64 13 -71 48 -8 36 -34 40 -42 7z"/> <path d="M4975 257 c-3 -7 -5 -49 -3 -93 3 -74 5 -79 26 -82 22 -3 23 -2 20 90 -3 79 -6 93 -21 96 -9 2 -19 -3 -22 -11z"/> <path d="M5390 174 c0 -86 2 -95 18 -92 9 2 19 14 20 28 6 38 21 50 63 50 41 0 59 -18 59 -59 0 -16 6 -21 25 -21 l26 0 -3 93 c-3 83 -5 92 -22 92 -14 0 -22 -10 -28 -31 -7 -27 -13 -32 -46 -37 -48 -6 -68 5 -75 43 -4 18 -13 30 -22 30 -12 0 -15 -17 -15 -96z"/> <path d="M5738 239 c-10 -17 -18 -36 -18 -44 0 -7 -7 -18 -15 -25 -8 -7 -15 -19 -15 -28 0 -8 -7 -24 -16 -34 -16 -16 -15 -18 0 -24 11 -4 26 2 40 15 12 11 28 21 35 21 8 0 10 10 6 34 -5 22 -3 36 5 41 15 10 31 -14 28 -41 -3 -28 62 -86 82 -74 12 7 7 25 -30 100 -50 101 -71 114 -102 59z"/> <path d="M6106 257 c-11 -8 -18 -26 -18 -43 0 -16 -6 -39 -15 -52 -38 -60 6 -94 112 -86 95 8 98 9 83 34 -10 16 -10 24 0 40 18 30 15 41 -12 34 -21 -5 -24 -1 -30 30 -4 20 -15 40 -26 46 -26 14 -73 12 -94 -3z m74 -42 c0 -18 -25 -26 -38 -13 -8 8 -8 17 -1 30 8 15 13 17 25 7 8 -6 14 -17 14 -24z m-2 -57 c30 -30 -8 -69 -52 -52 -31 12 -12 64 24 64 9 0 21 -5 28 -12z"/> <path d="M7363 258 c-15 -21 -9 -168 8 -178 7 -5 48 -7 89 -5 65 4 78 9 98 31 33 38 30 97 -7 135 -27 27 -35 29 -104 29 -48 0 -78 -4 -84 -12z m125 -24 c12 -4 29 -19 38 -35 13 -26 13 -32 -1 -59 -14 -28 -20 -30 -70 -30 l-55 0 0 58 c0 32 3 62 7 65 8 9 50 9 81 1z"/> <path d="M8704 259 c-8 -14 -12 -156 -4 -169 7 -12 25 -14 118 -12 l72 2 22 44 c21 45 21 45 3 86 -11 24 -29 46 -43 51 -34 13 -159 11 -168 -2z m147 -37 c25 -21 30 -71 9 -96 -16 -20 -110 -22 -111 -3 -2 27 3 102 7 109 10 15 72 8 95 -10z"/> </g> </svg> 
