 <svg version="1.0" xmlns="http://www.w3.org/2000/svg"  width="1350.000000pt" height="1350.000000pt" viewBox="0 0 1350.000000 1350.000000"  preserveAspectRatio="xMidYMid meet">  <g transform="translate(0.000000,1350.000000) scale(0.100000,-0.100000)" fill="#FFFFFF" stroke="none"> <path d="M6320 11330 c-85 -4 -175 -12 -200 -18 -25 -6 -71 -11 -102 -12 -31 0 -78 -4 -105 -10 -26 -5 -73 -14 -103 -20 -30 -6 -80 -15 -110 -20 -30 -4 -77 -14 -105 -20 -185 -46 -330 -86 -390 -107 -38 -13 -83 -28 -100 -33 -31 -8 -70 -22 -140 -48 -22 -8 -56 -20 -75 -27 -160 -59 -589 -263 -630 -300 -9 -8 -19 -15 -22 -15 -34 0 -566 -360 -613 -415 -5 -6 -28 -24 -50 -40 -22 -16 -58 -46 -80 -66 -22 -20 -62 -55 -90 -77 -68 -54 -394 -385 -441 -447 -21 -27 -52 -66 -70 -85 -18 -19 -46 -52 -61 -72 -15 -20 -60 -79 -98 -130 -60 -79 -144 -198 -180 -256 -5 -9 -25 -38 -42 -64 -18 -26 -33 -50 -33 -53 0 -3 -66 -119 -101 -175 -27 -45 -108 -204 -144 -285 -15 -33 -40 -87 -56 -120 -16 -33 -29 -65 -29 -72 0 -6 -13 -37 -29 -70 -40 -79 -119 -314 -152 -448 -5 -22 -13 -49 -18 -60 -11 -26 -30 -99 -40 -150 -4 -22 -13 -50 -19 -62 -7 -12 -12 -32 -12 -45 0 -13 -6 -52 -14 -88 -65 -293 -91 -575 -91 -975 0 -305 12 -504 40 -675 49 -297 75 -427 111 -541 8 -26 14 -58 14 -71 0 -13 5 -29 11 -35 6 -6 15 -29 19 -50 13 -60 115 -375 140 -428 5 -11 30 -64 55 -118 25 -54 45 -100 45 -103 0 -12 176 -355 204 -399 19 -27 42 -66 52 -85 11 -19 42 -68 69 -109 28 -41 68 -103 90 -136 62 -96 96 -143 142 -193 23 -26 43 -51 43 -55 0 -4 19 -29 43 -55 24 -26 60 -69 81 -97 64 -85 358 -376 509 -505 17 -14 44 -38 61 -55 40 -38 82 -69 127 -94 19 -11 41 -27 48 -35 8 -9 22 -16 32 -16 10 0 20 -9 24 -20 3 -10 22 -29 41 -40 18 -12 34 -26 34 -31 0 -5 9 -9 20 -9 11 0 29 -6 40 -12 16 -10 22 -10 28 -1 11 17 36 -1 29 -21 -5 -13 0 -14 26 -9 32 6 44 11 36 16 -2 1 -23 17 -46 35 -23 17 -47 32 -52 32 -6 0 -11 4 -11 8 0 5 -19 23 -42 40 -24 17 -59 46 -78 64 -19 19 -48 42 -64 52 -76 48 -406 369 -562 547 -122 138 -317 387 -359 458 -5 9 -26 39 -46 66 -20 28 -47 70 -60 95 -13 25 -40 70 -60 100 -90 135 -291 544 -356 725 -6 17 -32 95 -57 175 -26 80 -54 158 -62 173 -7 16 -14 38 -14 48 0 11 -5 30 -12 42 -6 12 -15 38 -19 57 -3 19 -18 78 -32 130 -14 52 -35 156 -47 230 -12 74 -25 158 -31 185 -43 235 -61 758 -35 1080 9 116 23 251 31 300 17 106 45 273 55 330 16 90 58 242 100 365 7 19 14 46 17 60 2 14 9 34 14 45 5 11 25 68 44 126 19 58 53 150 76 205 23 54 43 109 46 121 3 12 11 28 19 34 8 6 14 15 14 20 0 11 151 318 187 379 14 25 40 68 58 95 18 28 52 82 76 120 38 61 132 194 248 352 18 26 46 58 61 72 15 14 46 53 70 86 24 33 141 157 259 275 196 196 279 271 404 367 23 18 62 48 87 68 122 94 308 220 470 318 218 131 634 318 916 412 127 43 381 110 494 132 14 2 52 10 85 18 211 48 463 77 785 90 165 7 548 -10 690 -30 155 -23 287 -46 353 -61 32 -8 69 -14 83 -14 13 0 41 -6 61 -14 21 -7 65 -19 98 -26 104 -21 127 -27 275 -73 239 -76 489 -177 716 -290 206 -103 535 -301 649 -391 22 -17 51 -40 65 -49 248 -172 729 -634 903 -868 9 -13 33 -44 53 -68 19 -24 40 -53 46 -64 11 -22 13 -24 59 -77 17 -19 37 -46 44 -60 7 -14 42 -69 77 -122 109 -167 155 -243 177 -291 12 -26 28 -47 36 -47 8 0 15 -8 15 -19 0 -10 11 -35 25 -55 14 -20 25 -39 25 -42 0 -15 33 -74 41 -74 14 0 11 27 -10 78 -64 157 -77 187 -91 206 -10 11 -20 33 -23 47 -4 14 -17 42 -31 61 -13 20 -27 46 -31 59 -4 13 -23 44 -41 70 -18 26 -40 63 -49 81 -31 63 -54 101 -79 127 -14 15 -26 32 -26 38 0 5 -12 27 -27 47 -16 20 -50 68 -78 107 -27 39 -75 101 -106 138 -31 36 -60 74 -65 83 -26 49 -352 383 -509 523 -43 39 -92 82 -108 98 -17 15 -35 27 -41 27 -6 0 -24 14 -41 32 -31 31 -90 78 -180 142 -81 57 -245 170 -263 181 -9 6 -36 22 -60 38 -24 15 -48 27 -53 27 -6 0 -25 11 -43 25 -18 14 -38 25 -44 25 -6 0 -17 6 -24 13 -7 7 -38 25 -68 40 -30 15 -62 32 -70 37 -29 18 -246 118 -335 155 -49 20 -103 43 -120 50 -64 29 -354 126 -465 155 -47 12 -107 28 -135 35 -85 23 -204 45 -239 45 -18 0 -36 3 -40 8 -10 9 -138 30 -256 41 -52 5 -109 13 -127 19 -41 13 -646 22 -853 12z"/> <path d="M11130 8241 c0 -11 5 -23 10 -26 6 -4 10 5 10 19 0 14 -4 26 -10 26 -5 0 -10 -9 -10 -19z"/> <path d="M8635 7882 c-47 -29 -103 -97 -114 -139 -20 -71 -14 -164 15 -222 31 -61 84 -117 134 -138 45 -19 160 -19 197 0 34 18 83 62 83 75 0 6 -33 10 -72 9 -134 0 -224 61 -253 174 -17 62 -7 128 31 202 13 27 24 51 24 53 0 8 -16 3 -45 -14z"/> <path d="M5567 7278 c-15 -8 -17 -41 -17 -361 1 -385 8 -452 63 -569 76 -160 272 -249 483 -217 53 8 104 22 129 36 22 12 50 27 61 32 51 22 154 194 154 256 0 12 7 39 15 58 10 24 15 70 15 139 0 57 7 166 15 243 19 177 20 381 3 387 -7 3 -56 3 -108 1 -67 -2 -99 -8 -110 -19 -19 -19 -17 -122 4 -249 66 -391 77 -515 56 -616 -15 -70 -54 -129 -115 -171 -36 -25 -49 -27 -128 -28 -76 0 -93 3 -126 24 -89 57 -155 157 -180 274 -7 33 -11 185 -11 412 0 209 -4 361 -9 365 -17 10 -177 13 -194 3z"/> <path d="M4340 6710 l0 -570 332 2 c324 3 333 4 336 23 4 21 13 43 57 138 31 68 28 102 -11 111 -30 8 -44 0 -180 -104 -55 -42 -110 -83 -124 -91 -38 -23 -111 -41 -155 -37 l-40 3 -5 545 -5 545 -102 3 -103 3 0 -571z"/> <path d="M6945 7270 c-3 -5 9 -26 27 -47 18 -21 53 -63 78 -93 l45 -55 -2 -130 c-2 -71 -7 -177 -12 -235 -6 -58 -11 -211 -13 -340 l-3 -235 101 0 c96 0 103 1 123 25 24 29 26 74 6 110 -8 14 -15 39 -15 55 0 17 -7 41 -15 55 -8 14 -15 39 -15 55 0 17 -7 41 -15 55 -8 14 -14 36 -15 50 0 14 -6 54 -14 90 -14 65 -29 163 -42 273 -11 95 -5 90 177 -133 69 -85 154 -191 190 -234 35 -44 104 -129 152 -190 49 -61 107 -133 129 -159 l42 -48 100 3 101 3 6 165 c4 91 12 215 18 275 6 61 11 184 11 275 0 91 7 219 15 285 7 65 11 123 9 127 -3 4 -54 8 -114 8 -105 0 -109 -1 -129 -26 -24 -30 -26 -55 -9 -87 6 -12 15 -38 19 -57 4 -19 15 -62 24 -95 70 -272 123 -680 87 -680 -7 0 -45 41 -85 91 -40 50 -117 146 -172 214 -147 181 -277 341 -390 481 -143 176 -114 159 -264 159 -72 0 -132 -4 -136 -10z"/> <path d="M9014 7267 c-3 -8 20 -65 51 -127 35 -72 53 -120 49 -132 -5 -17 -78 -147 -104 -188 -6 -8 -16 -26 -22 -40 -7 -14 -27 -47 -44 -75 -17 -27 -50 -86 -74 -130 -23 -44 -46 -84 -50 -90 -4 -5 -38 -70 -76 -143 -38 -73 -75 -144 -82 -158 -7 -13 -10 -29 -7 -34 4 -6 57 -10 126 -10 116 0 121 1 144 26 19 20 25 40 30 109 4 48 13 89 20 95 8 7 86 9 220 8 l207 -3 44 -105 c25 -57 50 -110 56 -117 15 -19 217 -18 224 0 4 11 -26 91 -81 211 -7 17 -66 155 -131 306 -64 151 -125 293 -134 315 -10 22 -37 85 -60 140 -69 165 -50 150 -185 153 -91 2 -117 0 -121 -11z m175 -387 c16 -36 37 -85 48 -110 52 -116 123 -297 123 -312 0 -15 -19 -17 -175 -20 -96 -2 -180 -1 -185 0 -15 5 -12 33 14 134 49 187 120 382 138 376 6 -2 22 -33 37 -68z"/> <path d="M3463 7060 c-54 -12 -65 -27 -48 -60 26 -51 67 -92 84 -84 44 18 102 12 182 -17 46 -17 109 -36 139 -42 48 -9 61 -7 101 10 43 19 90 67 134 135 l17 28 -43 20 c-40 18 -65 19 -289 19 -135 -1 -260 -5 -277 -9z"/> <path d="M3616 6731 c-7 -11 45 -57 73 -66 11 -3 21 -13 23 -22 2 -9 1 -118 -2 -242 l-5 -226 -84 -5 c-88 -5 -111 -19 -69 -41 16 -9 73 -13 178 -13 105 0 162 4 178 13 41 22 20 36 -64 41 -43 3 -85 9 -91 13 -10 6 -13 65 -13 236 l0 228 49 26 c88 48 89 81 2 57 -22 -6 -51 -8 -63 -6 -60 12 -107 15 -112 7z"/> <path d="M5200 6280 c-28 -27 -32 -35 -27 -66 4 -20 14 -45 23 -55 21 -24 76 -25 109 -3 21 14 25 24 25 64 0 44 -3 50 -34 69 -44 28 -58 27 -96 -9z"/> <path d="M6752 6281 c-40 -41 -43 -60 -15 -104 21 -33 28 -37 64 -37 84 0 119 84 58 141 -40 37 -70 37 -107 0z"/> <path d="M8264 6276 c-41 -41 -43 -64 -8 -105 21 -25 34 -31 64 -31 73 0 104 80 54 139 -34 41 -67 40 -110 -3z"/> <path d="M3394 5791 c-70 -32 -85 -125 -27 -171 35 -27 142 -29 166 -2 10 10 17 22 17 25 0 11 -38 8 -45 -3 -11 -18 -81 -11 -109 11 -34 26 -34 63 0 94 36 34 58 39 93 21 38 -20 54 -1 21 26 -28 23 -64 23 -116 -1z"/> <path d="M3695 5803 c-90 -19 -126 -114 -66 -174 26 -26 36 -29 89 -29 55 0 63 3 86 31 30 36 35 92 10 127 -14 20 -76 54 -93 51 -3 -1 -15 -3 -26 -6z m70 -58 c30 -29 31 -62 6 -92 -38 -46 -131 -14 -131 44 0 32 43 73 75 73 14 0 37 -11 50 -25z"/> <path d="M5974 5796 c-75 -33 -96 -111 -45 -165 26 -28 35 -31 89 -31 73 0 92 6 92 31 0 20 -24 26 -35 9 -7 -12 -75 -13 -91 -2 -15 10 -34 47 -34 67 0 9 13 30 30 46 23 24 34 28 57 23 15 -4 34 -11 41 -17 9 -7 16 -7 24 1 32 32 -73 63 -128 38z"/> <path d="M6666 5795 c-43 -15 -56 -29 -56 -61 0 -29 16 -40 70 -49 51 -9 80 -24 80 -43 0 -10 -17 -13 -69 -10 -39 1 -73 -1 -78 -5 -15 -15 23 -27 90 -27 55 0 71 4 88 21 11 11 18 27 15 36 -3 8 -6 18 -6 23 0 20 -34 40 -68 40 -45 0 -67 13 -59 34 7 19 49 21 76 4 21 -13 56 -4 46 13 -7 10 -29 20 -70 32 -11 3 -38 0 -59 -8z"/> <path d="M7347 5791 c-28 -14 -32 -21 -32 -56 l0 -40 50 -8 c55 -9 91 -30 80 -46 -8 -14 -92 -14 -100 -1 -12 20 -36 11 -33 -12 3 -21 9 -23 70 -26 88 -4 108 7 108 58 0 45 -18 60 -72 60 -43 0 -60 12 -52 34 7 18 30 18 92 0 16 -5 22 -2 22 9 0 35 -84 52 -133 28z"/> <path d="M8705 5804 c-12 -3 -34 -15 -50 -28 -24 -20 -29 -30 -29 -74 -1 -40 4 -56 23 -76 22 -23 32 -26 92 -26 91 0 99 4 99 51 l0 39 -45 0 c-50 0 -59 -15 -19 -30 36 -14 20 -30 -30 -30 -81 0 -114 74 -55 124 35 30 41 31 78 12 17 -9 32 -11 42 -6 35 22 -49 56 -106 44z"/> <path d="M8970 5794 c-57 -25 -70 -42 -70 -93 0 -36 6 -53 25 -74 23 -24 33 -27 89 -27 52 0 66 4 84 23 36 38 44 74 26 112 -28 60 -94 85 -154 59z m95 -49 c30 -30 31 -54 4 -89 -16 -20 -29 -26 -59 -26 -34 0 -42 4 -56 31 -13 26 -13 36 -3 60 22 54 74 65 114 24z"/> <path d="M9243 5794 c-44 -22 -77 -76 -68 -111 3 -14 20 -39 37 -55 26 -24 38 -28 87 -28 50 0 61 4 84 28 52 54 30 137 -44 166 -49 20 -56 20 -96 0z m95 -41 c32 -27 37 -64 12 -96 -28 -36 -77 -37 -109 -3 -58 61 33 153 97 99z"/> <path d="M10265 5794 c-72 -37 -92 -89 -56 -148 26 -41 37 -46 107 -46 49 0 58 3 85 32 53 58 33 131 -45 163 -44 19 -54 19 -91 -1z m114 -69 c12 -25 12 -32 0 -54 -27 -48 -106 -54 -130 -10 -17 32 -3 82 28 101 23 14 32 14 58 4 16 -7 36 -25 44 -41z"/> <path d="M2424 5787 c-3 -8 -4 -52 -2 -98 l3 -84 84 0 c80 0 85 1 104 27 19 26 20 29 4 46 -12 13 -15 28 -11 51 11 53 -14 71 -103 71 -52 0 -75 -4 -79 -13z m130 -27 c18 -17 -3 -40 -36 -40 -49 0 -61 11 -42 39 13 18 22 21 43 16 14 -3 30 -10 35 -15z m14 -102 c3 -27 2 -28 -48 -28 -52 0 -69 13 -56 46 4 11 18 14 53 12 44 -3 48 -5 51 -30z"/> <path d="M2750 5778 c-6 -13 -14 -30 -19 -38 -5 -8 -12 -22 -15 -30 -3 -8 -10 -22 -14 -30 -18 -30 -32 -60 -32 -65 0 -15 35 -1 61 25 23 23 28 35 23 55 -5 20 -3 25 13 25 28 0 34 -10 22 -32 -9 -16 -5 -25 25 -54 19 -19 40 -34 46 -34 20 0 9 48 -26 116 -48 90 -66 103 -84 62z"/> <path d="M2956 5785 c-12 -32 -6 -151 8 -171 12 -15 15 -16 19 -4 17 59 23 74 32 77 6 2 32 -18 58 -43 34 -32 52 -43 59 -36 7 7 4 19 -10 39 l-20 29 24 21 c27 24 31 50 10 78 -20 28 -170 36 -180 10z m125 -25 c25 -14 24 -36 -2 -43 -30 -8 -89 4 -89 17 0 32 51 47 91 26z"/> <path d="M3910 5781 c-27 -52 0 -204 30 -161 6 8 8 23 6 32 -5 23 12 36 54 40 45 4 45 22 0 26 -19 2 -39 7 -44 12 -15 15 15 41 43 40 58 -4 81 0 81 15 0 12 -16 15 -80 15 -68 0 -81 -3 -90 -19z"/> <path d="M4161 5786 c-8 -9 -11 -45 -9 -98 3 -75 5 -83 23 -83 16 0 21 8 25 40 5 39 6 40 50 45 56 6 59 24 5 28 -50 4 -61 14 -39 36 12 13 30 17 63 14 37 -2 46 0 49 15 3 15 -6 17 -76 17 -56 0 -83 -4 -91 -14z"/> <path d="M4422 5788 c-16 -16 -16 -160 0 -176 7 -7 44 -12 95 -12 66 0 83 3 83 15 0 11 -17 15 -72 17 -70 3 -73 4 -73 28 0 23 4 25 48 28 33 2 47 7 47 18 0 10 -12 14 -39 14 -45 0 -59 13 -40 36 8 10 27 15 53 13 59 -3 66 -1 66 16 0 12 -15 15 -78 15 -47 0 -83 -5 -90 -12z"/> <path d="M4692 5788 c-16 -16 -16 -160 0 -176 7 -7 44 -12 95 -12 66 0 83 3 83 15 0 11 -17 15 -72 17 -70 3 -73 4 -73 28 0 23 4 25 48 28 33 2 47 7 47 18 0 10 -12 14 -39 14 -22 0 -43 5 -47 12 -10 16 26 39 61 37 53 -2 65 1 65 16 0 12 -15 15 -78 15 -47 0 -83 -5 -90 -12z"/> <path d="M5075 5787 c-3 -7 -5 -52 -3 -98 l3 -84 88 0 c101 0 119 17 25 25 l-63 5 -5 80 c-4 66 -8 80 -23 83 -9 2 -19 -3 -22 -11z"/> <path d="M5324 5786 c-3 -9 -4 -48 -2 -87 5 -89 16 -99 109 -99 59 0 70 3 83 22 23 32 22 156 0 165 -24 9 -34 -15 -32 -74 1 -62 -13 -83 -56 -83 -52 0 -61 12 -66 91 -5 70 -22 101 -36 65z"/> <path d="M5625 5777 c-3 -12 -5 -56 -3 -97 2 -59 6 -75 18 -75 11 0 16 13 18 45 5 78 8 79 76 11 51 -50 68 -62 85 -56 19 6 21 13 21 95 0 49 -4 91 -10 95 -15 9 -43 -41 -35 -65 4 -14 1 -22 -11 -27 -12 -4 -31 8 -66 45 -53 56 -84 66 -93 29z"/> <path d="M6205 5787 c-11 -27 0 -180 12 -184 7 -3 15 8 18 24 10 47 21 58 59 61 45 4 66 -11 66 -48 0 -29 26 -48 42 -32 5 5 8 49 6 98 -2 68 -6 89 -17 89 -8 0 -17 -7 -21 -15 -22 -47 -30 -55 -55 -58 -51 -6 -73 5 -77 40 -3 33 -24 49 -33 25z"/> <path d="M6892 5788 c-17 -17 -16 -162 1 -177 18 -14 27 -4 27 29 0 38 21 52 72 48 42 -3 43 -4 48 -43 6 -47 35 -61 48 -23 11 32 7 157 -6 170 -18 18 -40 1 -44 -34 -3 -31 -5 -33 -46 -36 -49 -4 -72 10 -72 44 0 28 -13 37 -28 22z"/> <path d="M7191 5786 c-18 -22 -11 -181 9 -181 12 0 16 18 18 89 3 91 -5 119 -27 92z"/> <path d="M7587 5793 c-12 -11 -8 -181 4 -189 15 -9 29 14 29 48 0 30 25 42 75 36 23 -2 30 -10 39 -43 9 -29 17 -40 31 -40 18 0 20 8 23 75 2 41 0 85 -3 98 -8 34 -38 24 -51 -18 -9 -27 -18 -36 -39 -38 -43 -5 -75 6 -75 27 0 39 -17 61 -33 44z"/> <path d="M7926 5778 c-9 -12 -16 -30 -16 -40 0 -9 -4 -19 -9 -22 -16 -10 -53 -95 -46 -106 4 -6 24 3 50 23 37 27 42 36 38 60 -4 21 -2 27 12 27 13 0 15 -6 10 -30 -5 -24 -1 -34 27 -59 34 -31 53 -38 63 -22 8 14 -85 191 -101 191 -7 0 -20 -10 -28 -22z"/> <path d="M8277 5782 c-10 -10 -17 -30 -17 -43 0 -14 -7 -34 -15 -45 -19 -25 -19 -59 1 -78 20 -21 194 -19 194 1 0 7 -4 13 -10 13 -16 0 -12 46 5 60 11 9 13 16 6 23 -7 7 -15 6 -24 -1 -18 -15 -27 -5 -27 28 0 54 -77 82 -113 42z m63 -18 c11 -12 11 -18 -2 -31 -19 -18 -38 -10 -38 16 0 33 20 40 40 15z m15 -104 c0 -22 -5 -25 -38 -28 -26 -2 -39 1 -43 12 -12 31 4 47 43 44 33 -3 38 -6 38 -28z"/> <path d="M9492 5788 c-7 -7 -12 -42 -12 -88 0 -46 5 -81 12 -88 17 -17 139 -15 164 3 56 39 53 140 -6 170 -35 18 -141 20 -158 3z m121 -29 c29 -15 37 -28 37 -59 0 -46 -26 -70 -76 -70 l-44 0 0 63 c0 35 3 67 7 70 10 11 52 8 76 -4z"/> <path d="M9897 5794 c-4 -4 -7 -47 -7 -96 0 -72 3 -88 15 -88 11 0 15 12 15 44 0 25 4 47 8 50 9 5 44 -37 55 -66 9 -25 34 -22 48 5 6 12 21 33 33 45 l21 24 5 -48 c4 -36 10 -50 23 -52 15 -3 17 6 17 76 0 94 -5 112 -31 112 -21 0 -59 -54 -59 -82 0 -12 -8 -18 -24 -18 -18 0 -30 11 -49 48 -23 44 -52 63 -70 46z"/> <path d="M10522 5784 c-12 -8 -31 -33 -43 -55 l-20 -41 36 -44 c36 -44 37 -44 99 -44 52 0 66 4 84 23 46 49 37 128 -17 160 -36 21 -109 22 -139 1z m109 -27 c59 -45 34 -127 -39 -127 -46 0 -72 24 -72 66 0 58 67 95 111 61z"/> <path d="M10784 5787 c-3 -8 -4 -52 -2 -98 l3 -84 65 -3 c87 -4 104 2 129 44 29 49 26 77 -13 118 -32 35 -36 36 -105 36 -50 0 -73 -4 -77 -13z m130 -28 c49 -23 42 -112 -10 -125 -12 -3 -35 -4 -50 -2 -27 3 -29 7 -32 47 -5 70 4 91 38 91 16 0 40 -5 54 -11z"/> <path d="M3993 2426 c-27 -13 -28 -19 -8 -36 13 -11 18 -10 30 6 12 16 17 17 34 7 25 -16 41 -17 41 -3 0 6 -9 10 -19 10 -10 0 -21 7 -25 15 -6 17 -21 17 -53 1z"/> </g> </svg> 
